<svg xmlns="http://www.w3.org/2000/svg" width="153.438" height="153.438" viewBox="0 0 153.438 153.438">
  <g id="Group_265" data-name="Group 265" transform="translate(-842 -1570.723)">
    <rect id="Rectangle_1544" data-name="Rectangle 1544" width="153.438" height="153.438" rx="28" transform="translate(842 1570.723)" fill="#ffe800"/>
    <g id="Group_5" data-name="Group 5" transform="translate(864.336 1647.443)">
      <g id="Group_4" data-name="Group 4" transform="translate(0 10)">
        <path id="Path_275" data-name="Path 275" d="M246.78,1406.262a8.758,8.758,0,0,1,2.5,6.336c0,6.123-4.579,8.838-9,8.838-1.863,0-3.78-.48-5.324-.48a8.5,8.5,0,0,0-3.78.8c-3.461,1.384-5.8-3.834-2.29-5.538a12.568,12.568,0,0,1,5.591-1.278c1.7,0,3.514.426,4.845.426a3.863,3.863,0,0,0,3.94-3.461,3.68,3.68,0,0,0-.692-2.183,12.538,12.538,0,1,1,6.815-11.18A12.506,12.506,0,0,1,246.78,1406.262Zm-3.195-7.72a6.872,6.872,0,1,0-7.028,7.081A6.772,6.772,0,0,0,243.585,1398.541Z" transform="translate(-223.992 -1376.765)" fill="#39007c"/>
        <path id="Path_276" data-name="Path 276" d="M253.007,1398.7a13.021,13.021,0,1,1,13.045,12.725A12.821,12.821,0,0,1,253.007,1398.7Zm20.233,0a7,7,0,0,0-7.188-7.188,7.214,7.214,0,1,0,7.188,7.188Z" transform="translate(-231.233 -1376.765)" fill="#39007c"/>
        <path id="Path_277" data-name="Path 277" d="M282.875,1398.7a13.021,13.021,0,1,1,13.044,12.725A12.82,12.82,0,0,1,282.875,1398.7Zm20.232,0a7,7,0,0,0-7.188-7.188,7.214,7.214,0,1,0,7.188,7.188Z" transform="translate(-238.687 -1376.765)" fill="#39007c"/>
        <path id="Path_278" data-name="Path 278" d="M338.458,1376.666v18.955a12.859,12.859,0,1,1-12.885-12.672,13.069,13.069,0,0,1,7.134,2.13v-8.412a2.856,2.856,0,0,1,2.876-2.982A2.992,2.992,0,0,1,338.458,1376.666Zm-5.484,18.955a7.214,7.214,0,0,0-14.429,0,7.214,7.214,0,1,0,14.429,0Z" transform="translate(-246.141 -1373.684)" fill="#39007c"/>
        <path id="Path_279" data-name="Path 279" d="M343.5,1408.178a3.053,3.053,0,0,1-.958-2.289,2.386,2.386,0,0,1,2.343-2.45,5.464,5.464,0,0,1,2.822,1.118,7.537,7.537,0,0,0,5.111,1.6c1.863,0,2.928-.9,2.928-2.13,0-1.544-1.33-2.236-5.111-3.514-3.513-1.171-7.56-3.088-7.56-7.666,0-4.259,4.1-6.815,8.944-6.815a11.322,11.322,0,0,1,7.986,2.822,3.42,3.42,0,0,1,1.118,2.449,2.543,2.543,0,0,1-2.29,2.662,4.786,4.786,0,0,1-2.662-.958,8.05,8.05,0,0,0-4.792-1.544c-1.171,0-2.556.32-2.556,1.7,0,1.491,1.65,2.023,4.526,3.035,5.111,1.757,8.146,3.727,8.146,7.827,0,4.525-3.94,7.507-8.945,7.507C348.289,1411.533,345.094,1409.988,343.5,1408.178Z" transform="translate(-253.577 -1376.765)" fill="#39007c"/>
      </g>
    </g>
    <g id="Group_257" data-name="Group 257" transform="translate(888.27 1606.949)">
      <path id="Path_657" data-name="Path 657" d="M410.7,558.787c0,16.611,13.179,30.077,29.435,30.077a30.345,30.345,0,0,0,30.121-30.077" transform="translate(-410.702 -558.787)" fill="none" stroke="#39007c" stroke-linecap="round" stroke-miterlimit="10" stroke-width="5"/>
    </g>
    <circle id="Ellipse_113" data-name="Ellipse 113" cx="5.5" cy="5.5" r="5.5" transform="translate(881.762 1586.762)" fill="#39007c"/>
    <circle id="Ellipse_114" data-name="Ellipse 114" cx="5.5" cy="5.5" r="5.5" transform="translate(942.762 1586.762)" fill="#39007c"/>
  </g>
</svg>
